<svg width="48" height="48" viewBox="0 0 48 48" fill="none" xmlns="http://www.w3.org/2000/svg">
<circle cx="24" cy="24" r="24" fill="#4F46E5"/>
<path d="M15.8901 38C7.87747 38 8.2838 27.9357 15.627 27.9357C15.627 27.9357 17.1285 27.7129 18.1803 28.5406C19.2321 29.3683 19.9332 30.196 19.9332 30.196C20.8681 31.1419 21.4524 31.8435 22.2704 32.5608C23.0885 33.2782 23.9435 33.719 25.192 34.098C26.3606 34.4527 35.32 35.6351 36.8781 35.8716C38.2805 36.1081 38.2805 37.7635 36.8781 38L15.8901 38Z" fill="#E0E7FF"/>
<path d="M10.7738 30.3142L17.9024 19.3176L17.3181 21.919L16.7338 24.1656L17.5518 27.3581L17.6686 27.7129C17.7328 27.9076 17.7844 28.0323 17.9024 28.1858C17.942 28.2374 18.1361 28.5406 18.1361 28.5406L18.3698 28.8953L10.7738 30.3142Z" fill="#E0E7FF"/>
<path d="M32.1099 10C40.1225 10 39.7162 20.0136 32.373 20.0136C32.373 20.0136 30.8715 20.2353 29.8197 19.4118C28.7679 18.5882 28.0668 17.7647 28.0668 17.7647C27.1319 16.8235 26.5476 16.1255 25.7296 15.4118C24.9115 14.698 24.0565 14.2594 22.808 13.8824C21.6394 13.5294 12.68 12.3529 11.1219 12.1176C9.71954 11.8824 9.71954 10.2353 11.1219 10L32.1099 10Z" fill="#E0E7FF"/>
<path d="M37.2755 17.5293L29.9132 28.4705L30.7313 25.7064L31.3156 23.5182L30.4975 20.4086L30.3807 20.0631C30.3165 19.8734 30.265 19.7519 30.147 19.6024C30.1073 19.5522 29.9132 19.2569 29.9132 19.2569L29.6795 18.9114L37.2755 17.5293Z" fill="#E0E7FF"/>
<path fill-rule="evenodd" clip-rule="evenodd" d="M31.4667 23.8833C31.4667 28.0715 28.0715 31.4667 23.8833 31.4667C19.6952 31.4667 16.3 28.0715 16.3 23.8833C16.3 19.6952 19.6952 16.3 23.8833 16.3C28.0715 16.3 31.4667 19.6952 31.4667 23.8833ZM21.0228 21.8412C20.8935 21.8007 20.7555 21.7801 20.6133 21.7801C20.3965 21.7801 20.1925 21.8299 20.0105 21.918C19.5114 21.3635 19.0727 20.7542 18.7038 20.1001C19.2019 19.4238 19.825 18.8492 20.5394 18.4074C21.2973 18.7126 22.0159 19.1074 22.68 19.5833C22.5972 19.83 22.5854 20.0951 22.6459 20.3483C22.0572 20.7914 21.5135 21.2915 21.0228 21.8412ZM19.3344 22.6218C19.2626 22.7896 19.2213 22.9759 19.2213 23.1714C19.2212 23.475 19.3208 23.7703 19.505 24.0117C18.9485 25.0463 18.5598 26.1626 18.3533 27.319C17.7496 26.3078 17.4314 25.1518 17.4326 23.974C17.4318 22.954 17.6704 21.9481 18.1293 21.0372C18.4836 21.5998 18.8869 22.1301 19.3344 22.6218ZM24.9486 19.0096C24.6991 18.7764 24.3664 18.6335 23.9988 18.6335C23.74 18.6335 23.499 18.7046 23.2914 18.8283C22.7804 18.4574 22.2388 18.1304 21.6726 17.8507C22.408 17.5738 23.1874 17.4322 23.9732 17.4327C25.118 17.4314 26.2429 17.732 27.2343 18.3043C26.4492 18.4562 25.6828 18.6927 24.9486 19.0096ZM26.4409 24.7212C26.288 24.8488 26.1646 25.0079 26.079 25.1876C24.5983 24.9667 23.185 24.4204 21.9407 23.588C22.0015 23.3972 22.0198 23.1955 21.9944 22.9969C21.969 22.7983 21.9004 22.6077 21.7935 22.4384C22.2181 21.9687 22.6856 21.5396 23.1898 21.1566C23.3834 21.2952 23.6093 21.3818 23.8459 21.4081C24.0826 21.4343 24.322 21.3994 24.5413 21.3066C25.3888 22.3116 26.0338 23.4712 26.4409 24.7212ZM27.8265 29.2577C27.9168 28.5309 27.936 27.7971 27.8841 27.0666C28.0654 26.9882 28.228 26.8721 28.361 26.726C28.494 26.5798 28.5944 26.4071 28.6555 26.2192C29.1779 26.17 29.6961 26.0832 30.206 25.9597C29.7827 27.2836 28.9494 28.4386 27.8265 29.2577ZM21.3385 24.3572C22.6656 25.2573 24.1717 25.8597 25.7534 26.1232C23.9933 27.0097 22.4999 28.3475 21.4259 29.9999C20.5787 29.6405 19.8168 29.1063 19.19 28.4323C19.3013 27.0692 19.6881 25.7429 20.3268 24.5335C20.6742 24.6062 21.0362 24.5431 21.3385 24.3572ZM25.383 19.8847C26.3324 19.4819 27.3376 19.2258 28.364 19.1254C29.1569 19.8418 29.7617 20.742 30.1252 21.7468C30.4888 22.7517 30.6 23.8304 30.4492 24.8883C29.8591 25.0618 29.2463 25.1826 28.6164 25.2466C28.5111 24.9985 28.3363 24.7863 28.113 24.6355C27.8897 24.4847 27.6274 24.4019 27.358 24.397C26.906 23.0177 26.189 21.74 25.2472 20.6355C25.362 20.4029 25.409 20.1428 25.383 19.8847ZM22.385 30.3184C23.4094 28.8257 24.8141 27.6338 26.4537 26.8661C26.5882 26.9768 26.7426 27.0608 26.9087 27.1135C26.9279 27.3609 26.9393 27.6112 26.9393 27.8636C26.9393 28.5617 26.8682 29.2435 26.7331 29.9032C25.8689 30.3063 24.9268 30.5148 23.9732 30.5139C23.4378 30.5141 22.9044 30.4485 22.385 30.3184Z" fill="#E0E7FF"/>
</svg>
